<svg xmlns="http://www.w3.org/2000/svg" viewBox="0 0 100 100" width="100%" height="100%">
  <g transform="translate(50,50) rotate(15) translate(-50,-50)">
    
    <path d="M38,35 L42,26 L58,26 L62,35 Z" fill="#222222" stroke="#000000" stroke-width="2" stroke-linejoin="round"/>
    
    <rect x="24" y="30" width="10" height="5" rx="1" fill="#1a1a1a" stroke="#000000" stroke-width="1.5"/>
    <rect x="65" y="32" width="8" height="3" rx="1" fill="#1a1a1a" stroke="#000000" stroke-width="1.5"/>
    <circle cx="32" cy="42" r="2" fill="#1a1a1a" stroke="#000000" stroke-width="1"/>
    <circle cx="68" cy="48" r="2" fill="#1a1a1a" stroke="#000000" stroke-width="1"/>
    
    <rect x="15" y="35" width="70" height="42" rx="4" fill="#222222" stroke="#000000" stroke-width="2"/>
    
    <circle cx="50" cy="56" r="18" fill="#333333" stroke="#000000" stroke-width="2"/>
    <circle cx="50" cy="56" r="13" fill="#1a1a1a" stroke="#000000" stroke-width="1.5"/>
    <circle cx="50" cy="56" r="7" fill="#0a0a0a" stroke="#000000" stroke-width="1"/>
    
    <circle cx="48" cy="53" r="2" fill="#ffffff" opacity="0.6"/>
  </g>

  <g transform="translate(50,50) rotate(45) translate(-50,-50)">
    
    <path d="M43,40 L43,85 A7,7 0 0,0 57,85 L57,40 
             C63,38 65,30 63,24 
             L53,24 L53,16 L65,16 
             C60,8 45,5 38,15 
             C33,22 35,35 43,40 Z" 
          fill="#e0e0e0" stroke="#000000" stroke-width="2" stroke-linejoin="round"/>
          
    <circle cx="50" cy="85" r="2.5" fill="#ffffff" stroke="#000000" stroke-width="1.5"/>
    
    <rect x="46" y="33" width="8" height="6" rx="1" fill="#b0b0b0" stroke="#000000" stroke-width="1.5"/>
    <line x1="46" y1="35" x2="54" y2="35" stroke="#000000" stroke-width="1"/>
    <line x1="46" y1="37" x2="54" y2="37" stroke="#000000" stroke-width="1"/>
    
    <line x1="50" y1="46" x2="50" y2="76" stroke="#b0b0b0" stroke-width="2" stroke-linecap="round"/>
  </g>
</svg>
